<svg id="Layer_1" data-name="Layer 1" xmlns="http://www.w3.org/2000/svg" viewBox="0 0 187.575 231.731">
  <defs>
    <style>
      .cls-1 {
        fill: #fff;
      }
    </style>
  </defs>
  <title>8c8ffb35-b7ae-4513-82bd-db115d10b224</title>
  <g id="Artwork_3" data-name="Artwork 3">
    <g>
      <path class="cls-1" d="M136.065,96.1a6.913,6.913,0,1,0,6.911,6.912,6.921,6.921,0,0,0-6.911-6.912m0,12.234a5.321,5.321,0,1,1,5.319-5.322,5.326,5.326,0,0,1-5.319,5.322m2.656-2.377a0.821,0.821,0,0,1-.068-0.34c-0.011-.148-0.016-0.4-0.016-0.76a3.094,3.094,0,0,0-.092-0.883,0.962,0.962,0,0,0-.251-0.452,1.749,1.749,0,0,0-.462-0.278,1.315,1.315,0,0,0,.724-0.566,1.729,1.729,0,0,0,.253-0.941,2,2,0,0,0-.163-0.771,1.624,1.624,0,0,0-.616-0.723,2.133,2.133,0,0,0-1.218-.306H133.6v6.35h1.3v-2.482h1.373a1.554,1.554,0,0,1,.7.116,0.5,0.5,0,0,1,.273.356,3.1,3.1,0,0,1,.067.731,4.538,4.538,0,0,0,.137,1.279h1.471v-0.162a0.357,0.357,0,0,1-.2-0.168m-1.482-3.43a1.214,1.214,0,0,1-.783.208H134.9v-1.7h1.661a0.868,0.868,0,0,1,.72.247,0.851,0.851,0,0,1,.21.579,0.811,0.811,0,0,1-.248.663m20-12.165c-1.607.94-5.364,2.813-8.656-.318-3.845-3.665-8.5-3.349-11.354-3.031-4.435.5-8.191,0.114-11.827-1.7a10.818,10.818,0,0,1-6.083-9l-3.946.492a62.924,62.924,0,0,0,7.883,30.548,61.984,61.984,0,0,0,3.381,5.378L36.285,85.964c0-.03.034-0.976,0.134-2.6l8.549,2.559c0.011-.51.031-1.033,0.046-1.56l-8.5-2.548c0.048-.718.106-1.517,0.173-2.392L45.1,81.94c0.022-.5.04-1.027,0.069-1.549l-8.361-2.5c0.062-.757.131-1.549,0.207-2.385l8.28,2.479c0.027-.507.057-1.029,0.088-1.549l-8.222-2.463c0.069-.764.149-1.56,0.234-2.371l8.156,2.442c0.036-.512.073-1.027,0.116-1.542l-8.108-2.427c0.086-.772.172-1.567,0.269-2.364l8.044,2.406c0.041-.508.09-1.018,0.14-1.531l-8-2.395c0.094-.773.2-1.559,0.3-2.356l7.951,2.378c0.054-.5.114-1.015,0.17-1.52l-7.911-2.37q0.161-1.162.331-2.343l7.873,2.35c0.065-.5.138-1.005,0.209-1.507l-7.852-2.354c0.122-.773.246-1.547,0.379-2.328l7.816,2.337c0.076-.5.152-1,0.237-1.5l-7.8-2.335c0.13-.772.267-1.548,0.417-2.32l7.785,2.328c0.087-.5.184-0.991,0.281-1.492L40.41,50.823c0.147-.77.3-1.534,0.464-2.307l7.79,2.334c0.106-.493.215-0.983,0.323-1.478l-7.8-2.331c0.167-.771.337-1.535,0.516-2.293l7.827,2.341c0.123-.488.243-0.98,0.373-1.46l-7.844-2.348c0.189-.765.38-1.521,0.578-2.272l7.9,2.363c0.149-.484.3-0.96,0.453-1.439l-7.953-2.378c0.212-.759.435-1.507,0.662-2.25l8.037,2.4c0.169-.464.345-0.94,0.524-1.411l-8.11-2.429c0.24-.724.5-1.468,0.78-2.215l8.2,2.461c0.195-.463.4-0.93,0.609-1.4l-8.266-2.474c0.289-.717.593-1.442,0.918-2.17l8.355,2.5c0.221-.459.446-0.913,0.681-1.371l-8.4-2.51c0.345-.71.709-1.418,1.082-2.126L56.576,29.1q0.375-.67.772-1.341l-8.5-2.546c0.39-.7.8-1.388,1.23-2.074L58.635,25.7c0.286-.437.576-0.879,0.877-1.308l-8.577-2.568c0.455-.684.917-1.362,1.407-2.024l8.622,2.578c0.325-.426.652-0.856,0.991-1.276l-8.634-2.581c0.527-.671,1.077-1.32,1.643-1.959l8.645,2.588c0.371-.417.749-0.83,1.134-1.235L56.1,15.327c0.619-.648,1.254-1.275,1.917-1.877l8.63,2.584c0.434-.4.872-0.792,1.322-1.179l-8.606-2.574c0.742-.616,1.514-1.2,2.307-1.752l8.519,2.547c0.521-.384,1.04-0.75,1.575-1.1L63.327,9.446a30.873,30.873,0,0,1,2.921-1.569l8.25,2.469c0.648-.349,1.3-0.677,1.979-0.98L68.435,6.957a27.821,27.821,0,0,1,4.173-1.2l7.445,2.23c0.9-.288,1.819-0.542,2.76-0.747l-6.6-1.981A32.26,32.26,0,0,1,86.595,6.3l0.032-.111S88.82,0.8,93.614,0l-0.5,6.788c0.53,0.078,1.008.149,1.392,0.221a9.012,9.012,0,0,1,7.384-5.416s-0.184,6.2,0,11.821c3.943,1.477,5.912,6.9,7.885,11.827s7.215,11.539,10.619,15.523c3.815,4.474,6.487,7.849,7.326,9.159,2.931,4.585-2.77,8.988-5.136,10.3a6.6,6.6,0,0,1-7.69-.955c-3.844-3.659-8.636-3.558-11.5-3.241-4.43.493-7.364,0.571-11.928-1.647a10.9,10.9,0,0,1-5.832-8.938l-3.944.491a62.918,62.918,0,0,0,7.883,30.549c7.391,13.3,19.214,22.17,19.214,22.17s0.331,0.288.86,0.744a65.737,65.737,0,0,1-5.187-7.863A62.869,62.869,0,0,1,96.58,60.986l3.941-.494c0.45,4.454,1.649,7.324,6.275,9.4,4.07,1.83,6.916,1.655,11.351,1.164,2.855-.322,8.656-1.164,12.431,2.734a6.03,6.03,0,0,0,6.891,1.482c2.87-1.328,8.754-5.935,5.822-10.144-0.89-1.281-3.845-4.033-8.06-8.8A75.982,75.982,0,0,1,124.66,40.292c-0.926-2.005-1.65-4.17-2.608-6.071a8.647,8.647,0,0,1,5.241-3.342l-0.5,6.793c0.531,0.075,1,.148,1.392.217,1.734-4.818,7.388-5.419,7.388-5.419s-0.16,6.463,0,11.828c4.271,1.392,6.441,8.922,8.373,12.813,2.557,5.15,7.629,11.4,12.017,16.652,3.256,3.9,4.5,5.371,5.68,7.573,2.17,4.069-2.25,7.765-4.4,9.026"/>
      <path class="cls-1" d="M68.012,138.553H60.476v-3.262H78.691v3.262H71.277v20.315H68.012V138.553Zm22.056,9.527h10v10.788h3.267V135.291h-3.267v9.522h-10v-9.522H86.8v23.577h3.264V148.08ZM127.1,155.6h-9.463V148.08h6.628v-3.267h-6.628v-6.26h8.317v-3.262h-11.58v23.577H127.1V155.6ZM18.153,183.193A11.851,11.851,0,0,1,6.3,195.016H0V171.434H6.3a11.816,11.816,0,0,1,11.849,11.759m-3.3,0A8.532,8.532,0,0,0,6.3,174.7H3.265v17.046H6.3a8.563,8.563,0,0,0,8.552-8.552m14.014,1.029H35.5v-3.265H28.87V174.7h8.318v-3.265H25.606v23.582H38.333v-3.271H28.87v-7.523Zm18.274,10.794h3.264V171.435H47.144v23.581ZM71.234,174.1a9.151,9.151,0,0,1,6.589,2.677l0.58,0.591,2.3-2.308-0.57-.578a12.379,12.379,0,0,0-8.9-3.648,12.363,12.363,0,1,0,.18,24.725A12.4,12.4,0,0,0,80.036,192l0.244-.239v-7.791H70.564v3.266h6.45v3.073a9.178,9.178,0,0,1-5.63,1.975,9,9,0,0,1-9.156-9.034,9.09,9.09,0,0,1,9.006-9.155m31.6,6.859H92.845v-9.523h-3.27v23.582h3.27V184.222h9.992v10.794h3.27V171.434h-3.27v9.523Zm10.215-6.258h7.533v20.317h3.268V174.7h7.412v-3.265H113.052V174.7Zm47.1,8.4A12.362,12.362,0,1,1,147.7,170.832,12.234,12.234,0,0,1,160.15,183.1m-21.46.152A9.1,9.1,0,1,0,147.7,174.1a9.007,9.007,0,0,0-9.012,9.155m45.619-11.819V188.2l-15.882-18.922v25.737h3.263V178.242l15.885,18.929V171.434h-3.266ZM71.21,210.269a9.143,9.143,0,0,1,6.588,2.679l0.577,0.588,2.306-2.3-0.568-.584a12.391,12.391,0,0,0-8.9-3.644,12.361,12.361,0,0,0,.181,24.722,12.387,12.387,0,0,0,8.62-3.553L80.6,227.6l-2.293-2.3-0.582.563a9.262,9.262,0,0,1-6.362,2.6,9,9,0,0,1-9.154-9.036,9.094,9.094,0,0,1,9-9.161m29.926,12.172a5.841,5.841,0,1,1-11.681.152V207.61H86.188v15.044a9.107,9.107,0,0,0,18.213-.213V207.61h-3.265v14.831Zm27.5-7.018a7.779,7.779,0,0,1-7.72,7.993h-4.365v7.77h-3.27V207.61h7.543a7.735,7.735,0,0,1,7.812,7.813m-12.085,4.723h4.334a4.558,4.558,0,0,0,4.482-4.723,4.5,4.5,0,0,0-4.543-4.549h-4.273v9.272Z"/>
    </g>
  </g>
</svg>
